<?xml version="1.0" encoding="UTF-8" standalone="no"?>
<!-- Created with Inkscape (http://www.inkscape.org/) -->

<svg
   width="15.179241mm"
   height="16.814407mm"
   viewBox="0 0 15.179241 16.814407"
   version="1.1"
   id="svg5"
   inkscape:version="1.1.2 (b8e25be833, 2022-02-05)"
   sodipodi:docname="accound.svg"
   xmlns:inkscape="http://www.inkscape.org/namespaces/inkscape"
   xmlns:sodipodi="http://sodipodi.sourceforge.net/DTD/sodipodi-0.dtd"
   xmlns="http://www.w3.org/2000/svg"
   xmlns:svg="http://www.w3.org/2000/svg">
  <sodipodi:namedview
     id="namedview7"
     pagecolor="#505050"
     bordercolor="#ffffff"
     borderopacity="1"
     inkscape:pageshadow="0"
     inkscape:pageopacity="0"
     inkscape:pagecheckerboard="1"
     inkscape:document-units="mm"
     showgrid="false"
     fit-margin-top="0"
     fit-margin-left="0"
     fit-margin-right="0"
     fit-margin-bottom="0"
     inkscape:zoom="4"
     inkscape:cx="35.125"
     inkscape:cy="72.5"
     inkscape:window-width="1920"
     inkscape:window-height="1017"
     inkscape:window-x="-8"
     inkscape:window-y="-8"
     inkscape:window-maximized="1"
     inkscape:current-layer="layer1" />
  <defs
     id="defs2" />
  <g
     inkscape:label="Layer 1"
     inkscape:groupmode="layer"
     id="layer1"
     transform="translate(-87.912745,-98.332511)">
    <g
       id="g2022"
       transform="matrix(1.1401481,0,0,1.2569566,-13.384475,-25.429801)">
      <ellipse
         style="fill:none;stroke:#b3b3b3;stroke-width:1.00691;stroke-miterlimit:4;stroke-dasharray:none"
         id="path934"
         cx="95.502365"
         cy="105.15042"
         rx="6.1532421"
         ry="6.1850843" />
      <g
         id="g836"
         transform="matrix(0.48760877,0,0,0.48760877,89.619251,99.250034)"
         style="fill:#000000">
        <g
           id="info"
           style="fill:#000000" />
        <g
           id="icons"
           style="fill:#000000">
          <path
             d="M 12,0 C 5.4,0 0,5.4 0,12 0,18.6 5.4,24 12,24 18.6,24 24,18.6 24,12 24,5.4 18.6,0 12,0 Z m 0,4 c 2.2,0 4,2.2 4,5 0,2.8 -1.8,5 -4,5 C 9.8,14 8,11.8 8,9 8,6.2 9.8,4 12,4 Z m 6.6,15.5 C 16.9,21 14.5,22 12,22 9.5,22 7.1,21 5.4,19.5 5,19.1 4.9,18.5 5.3,18.1 c 1.1,-1.3 2.6,-2.2 4.2,-2.7 0.8,0.4 1.6,0.6 2.5,0.6 0.9,0 1.7,-0.2 2.5,-0.6 1.7,0.5 3.1,1.4 4.2,2.7 0.4,0.4 0.4,1 -0.1,1.4 z"
             id="user2"
             style="fill:#000000" />
        </g>
      </g>
      <path
         style="fill:#000000;stroke:#ffffff;stroke-width:0.0550096;stroke-miterlimit:4;stroke-dasharray:none"
         d="m 95.074625,106.01065 c -0.955352,-0.26348 -1.601599,-1.34046 -1.529303,-2.54857 0.01014,-0.16808 0.03784,-0.38759 0.06179,-0.48773 0.195434,-0.81821 0.724674,-1.463 1.383116,-1.68511 0.223327,-0.0753 0.737276,-0.0753 0.9606,0 0.658443,0.22211 1.187683,0.8669 1.383116,1.68511 0.06461,0.2705 0.08551,0.7527 0.04559,1.05141 -0.132322,0.98958 -0.733315,1.77544 -1.517336,1.9841 -0.191971,0.0511 -0.603708,0.0516 -0.787551,9.5e-4 z"
         id="path1198" />
      <path
         style="fill:#000000;stroke:#ffffff;stroke-width:0.0550096;stroke-miterlimit:4;stroke-dasharray:none"
         d="m 94.699131,109.89444 c -0.867401,-0.15407 -1.654187,-0.50727 -2.285066,-1.02585 -0.288425,-0.23709 -0.378256,-0.46596 -0.26719,-0.68076 0.07011,-0.13564 0.518987,-0.56666 0.792989,-0.76157 0.282856,-0.20119 0.771996,-0.45804 1.086266,-0.57041 l 0.21483,-0.0769 0.211554,0.0855 c 0.649198,0.26212 1.389461,0.26107 2.043296,-0.004 l 0.218833,-0.0883 0.251216,0.0942 c 0.589553,0.2208 1.094477,0.54386 1.532072,0.98025 0.361377,0.36041 0.423039,0.50227 0.316175,0.72746 -0.09159,0.19303 -0.698847,0.63303 -1.224839,0.8875 -0.895543,0.43326 -1.97464,0.59455 -2.890136,0.43197 z"
         id="path1237" />
      <path
         style="fill:#cccccc;stroke:#cccccc;stroke-width:0.0550096;stroke-miterlimit:4;stroke-dasharray:none"
         d="m 95.03235,105.95372 c -0.614061,-0.19233 -1.146213,-0.8098 -1.3571,-1.57469 -0.05448,-0.19766 -0.06443,-0.30996 -0.06572,-0.7423 -0.0015,-0.44551 0.0068,-0.53861 0.06482,-0.74227 0.155212,-0.54496 0.478731,-1.03199 0.873728,-1.31532 0.29261,-0.20989 0.481588,-0.27731 0.822504,-0.29343 0.455821,-0.0216 0.753121,0.0738 1.110454,0.35592 0.331556,0.26181 0.643395,0.75581 0.781677,1.23827 0.08946,0.3121 0.111148,0.97575 0.0429,1.31255 -0.105268,0.51956 -0.320208,0.93892 -0.65617,1.28023 -0.237934,0.24174 -0.402072,0.3499 -0.689186,0.45412 -0.15383,0.0558 -0.24166,0.0674 -0.498336,0.0658 -0.171374,-9.8e-4 -0.364688,-0.0186 -0.429574,-0.0389 z"
         id="path1352" />
      <path
         style="fill:#b3b3b3;stroke:#b3b3b3;stroke-width:0.0550096;stroke-miterlimit:4;stroke-dasharray:none"
         d="m 94.990224,109.89081 c -0.71125,-0.0741 -1.523665,-0.36472 -2.139525,-0.76535 -0.535379,-0.3483 -0.742568,-0.59267 -0.699075,-0.82451 0.01622,-0.0868 0.08151,-0.16826 0.334027,-0.41696 0.172591,-0.1701 0.417032,-0.37705 0.543197,-0.45998 0.273996,-0.18005 0.771714,-0.43716 1.018414,-0.52601 l 0.177751,-0.0639 0.302556,0.10247 c 0.680522,0.23044 1.349394,0.21466 2.020003,-0.0476 l 0.174655,-0.0684 0.215431,0.0829 c 0.548758,0.21107 1.050625,0.52774 1.474461,0.93033 0.362849,0.34468 0.461462,0.5372 0.366271,0.71506 -0.05271,0.0984 -0.347309,0.35014 -0.625826,0.53459 -0.697417,0.46188 -1.465996,0.72898 -2.332721,0.81071 -0.360416,0.0339 -0.476359,0.0335 -0.829608,-0.004 z"
         id="path1391" />
      <path
         style="fill:#ffffff;stroke:#ffffff;stroke-width:0.00359946;stroke-miterlimit:4;stroke-dasharray:none"
         d="m 93.582328,103.52618 c 0,-0.004 3.89e-4,-0.006 9.75e-4,-0.004 4.77e-4,0.002 4.77e-4,0.006 0,0.007 -4.83e-4,0.002 -9.75e-4,3.3e-4 -9.75e-4,-0.004 z"
         id="path1547" />
      <path
         style="fill:#ffffff;stroke:#ffffff;stroke-width:0.00359946;stroke-miterlimit:4;stroke-dasharray:none"
         d="m 93.583093,103.94478 c -4.89e-4,-0.009 -0.0024,-0.0299 -0.0039,-0.047 -0.0076,-0.0844 -0.0094,-0.13306 -0.0094,-0.25157 -1.5e-5,-0.0916 4.88e-4,-0.12901 0.0035,-0.1714 0.0081,-0.12771 0.0081,-0.12568 0.0085,0.11261 1.51e-4,0.12108 9.75e-4,0.2543 0.0024,0.29597 9.75e-4,0.0416 0.0015,0.0761 0.0015,0.0765 -3.95e-4,4.1e-4 -0.0015,-0.006 -0.002,-0.0147 z"
         id="path1586" />
    </g>
    <path
       style="fill:#ffffff;stroke:#ffffff;stroke-width:0.00738189;stroke-miterlimit:4;stroke-dasharray:none"
       d=""
       id="path1736"
       transform="scale(0.26458333)" />
  </g>
</svg>
